# xmcd
#
# Track frame offsets: 
#        182
#        11817
#        23585
#        39937
#        51177
#        68377
#        88870
#        101720
#        116065
#        131782
#        145190
#        162100
#
# Disc length: 2430 seconds
#
# Revision: 0
# Processed by: cddbd v1.4PL0 Copyright (c) Steve Scherf et al.
# Submitted via: ExactAudioCopy v0.90b4
#
DISCID=9a097c0c
DTITLE=The Wood Brothers - The Wood Brothers
DYEAR=1992
DGENRE=Country
TTITLE0=Alcohol Of Fame
TTITLE1=Stranger Things Have Happened
TTITLE2=Love
TTITLE3=Under This Ol' Hat
TTITLE4=And So It Goes
TTITLE5=Nothing Can Hurt You
TTITLE6=Don't Leave Home Without Her
TTITLE7=How Long Did It Take You (To Stop Loving Me)
TTITLE8=Shelly's Winter Love
TTITLE9=The Reason
TTITLE10=Say You Love Me
TTITLE11=I'm Tired Of Being Something That Means Nothing To You
EXTD=
EXTT0=
EXTT1=
EXTT2=
EXTT3=
EXTT4=
EXTT5=
EXTT6=
EXTT7=
EXTT8=
EXTT9=
EXTT10=
EXTT11=
PLAYORDER=
